<svg xmlns="http://www.w3.org/2000/svg" width="32" height="32" viewBox="0 0 32 32">
<!-- colors = ["#3c723a","#296326","#1d7518","#247720","#5cb857","#199137"] -->
<rect x="0" y="0" width="32" height="32" fill="#3ca84b"/><g><path stroke="#3c723a" stroke-width="1" d="M32.5,15v1M1.5,3v1M18.5,29v1M13.5,10v1M1.5,21v1M18.5,21v1M21.5,25v1M6.5,19v1M3.5,23v1M14.5,12v1M11.5,2v1M29.5,30v1M20.5,9v1M28.5,9v1M11.5,12v1M10.5,30v1M1.5,22v1M4.5,13v1M3.5,23v1M28.5,23v1M15.5,12v1M13.5,28v1M4.5,19v1M27.5,0v1M30.5,24v1M17.5,2v1M28.5,4v1M22.5,12v1M19.5,26v1M1.5,13v1M31.5,10v1M16.5,10v1M13.5,30v1M30.5,7v1M27.5,8v1M4.5,4v1M29.5,19v1M29.5,13v1M18.5,2v1M11.5,10v1M17.5,16v1M31.5,21v1M9.5,4v1M4.5,6v1M8.5,17v1M24.5,1v1M17.5,19v1M9.5,6v1M26.5,32v1M14.5,6v1M21.5,18v1M14.5,3v1M11.5,27v1M11.5,7v1M10.5,30v1M1.5,14v1M14.5,27v1M25.5,30v1M15.5,32v1M32.5,25v1M1.5,4v1M11.5,25v1M1.5,19v1M2.5,10v1M10.5,7v1M4.5,5v1M10.5,32v1M15.5,23v1M26.5,25v1M15.5,31v1M5.5,29v1M5.5,27v1M5.5,13v1M32.5,28v1M7.5,8v1M31.5,4v1M8.5,18v1M10.5,18v1M11.5,24v1M14.5,0v1M24.5,6v1M11.5,16v1M8.5,31v1M26.5,10v1M18.5,4v1M1.5,3v1M10.5,10v1M22.5,7v1M26.5,21v1M13.5,4v1M9.5,11v1M11.5,30v1M2.5,10v1M16.5,16v1M27.5,24v1M13.5,4v1M23.5,24v1M32.5,2v1M8.5,19v1M20.5,15v1M19.5,13v1M29.5,2v1M13.5,19v1M28.5,2v1M31.5,9v1M31.5,27v1M0.5,29v1M6.5,11v1M5.5,24v1M19.5,7v1M9.5,29v1M27.5,4v1M23.5,23v1M21.5,0v1M23.5,0v1M3.5,10v1M11.5,1v1M5.5,6v1M26.5,6v1M29.5,19v1M19.5,30v1M2.5,6v1M18.5,6v1M30.5,6v1M10.5,30v1M5.5,19v1M9.5,31v1M25.5,1v1M28.5,9v1M2.5,5v1M5.5,14v1M30.5,10v1M12.5,11v1M15.5,30v1M17.5,3v1M26.5,12v1M5.5,7v1M2.5,29v1M6.5,29v1M16.5,5v1M27.5,9v1M32.5,19v1M17.5,24v1M18.5,6v1M23.5,30v1M8.5,4v1M2.5,27v1M8.5,3v1M10.5,1v1M29.5,20v1M10.5,24v1M14.5,15v1M3.5,29v1M12.5,2v1M20.5,30v1M1.5,25v1M16.5,30v1M21.5,10v1M1.5,15v1M9.5,21v1M12.5,9v1M11.5,21v1M16.5,20v1M12.5,7v1M30.5,31v1M10.5,23v1M16.5,9v1M29.5,21v1M19.5,22v1M27.5,31v1M10.5,18v1M22.5,22v1M20.5,7v1M23.5,15v1M15.5,19v1M9.5,28v1M2.5,15v1M13.5,6v1M25.5,24v1M11.5,22v1M0.5,22v1M17.5,15v1M30.5,13v1M22.5,22v1M4.5,20v1M15.5,9v1M0.5,1v1M1.5,0v1M2.5,0v1M19.5,0v1M12.5,22v1M8.5,3v1M9.5,26v1M5.5,15v1M14.5,3v1M2.5,24v1M15.5,15v1M19.5,9v1M15.5,25v1M16.5,23v1M9.5,6v1M8.5,26v1M31.5,28v1M31.5,3v1M15.5,8v1M2.5,16v1M11.5,28v1M6.5,8v1M11.5,17v1M11.5,4v1M28.5,2v1M22.5,27v1M16.5,16v1M29.5,29v1M2.5,31v1M6.5,29v1M10.5,5v1M5.5,2v1M13.5,16v1M0.5,9v1M7.5,29v1M9.5,26v1M22.5,28v1M4.5,8v1M13.5,23v1M0.5,23v1M7.5,2v1M27.5,17v1M12.5,31v1M25.5,15v1M24.5,24v1M7.5,8v1M31.5,15v1M25.5,31v1M17.5,15v1M27.5,24v1M13.5,9v1M11.5,11v1M6.5,4v1M13.5,13v1M2.5,1v1M14.5,25v1M11.5,11v1M13.5,8v1M23.5,1v1M10.5,28v1M19.5,14v1M7.5,12v1M21.5,11v1M14.5,1v1M14.5,14v1M7.5,14v1M3.5,26v1M26.5,10v1M31.5,12v1M5.5,26v1M5.5,24v1M7.5,10v1M25.5,28v1M4.5,1v1M16.5,18v1M27.5,28v1M16.5,14v1M3.5,27v1M1.5,11v1M9.5,8v1M10.5,17v1M11.5,8v1M29.5,17v1M32.5,16v1M3.5,25v1M18.5,13v1M1.5,20v1M24.5,26v1M9.5,19v1M1.5,26v1M18.5,14v1M12.5,14v1M7.5,13v1M18.5,26v1M29.5,14v1M10.5,4v1M12.5,10v1M32.5,5v1M20.5,15v1M13.5,11v1"/><path stroke="#296326" stroke-width="1" d="M22.5,19v1M18.5,16v1M32.5,7v1M10.5,13v1M10.5,29v1M26.5,12v1M7.5,6v1M13.5,11v1M19.5,30v1M12.5,18v1M5.5,30v1M19.5,23v1M3.5,3v1M29.5,19v1M24.5,26v1M16.5,28v1M15.5,25v1M20.5,1v1M21.5,10v1M1.5,19v1M31.5,17v1M5.5,25v1M15.5,21v1M24.5,10v1M5.5,16v1M20.5,8v1M22.5,21v1M12.5,16v1M26.5,5v1M3.5,6v1M24.5,5v1M31.5,10v1M7.5,9v1M27.5,23v1M29.5,19v1M7.5,6v1M8.5,13v1M17.5,24v1M19.5,24v1M0.5,16v1M19.5,22v1M21.5,11v1M24.5,7v1M22.5,15v1M6.5,3v1M13.5,30v1M15.5,27v1M1.5,5v1M24.5,9v1M7.5,29v1M8.5,22v1M16.5,25v1M2.5,8v1M15.5,24v1M2.5,15v1M9.5,15v1M30.5,0v1M8.5,20v1M9.5,7v1M9.5,12v1M26.5,32v1M5.5,6v1M9.5,15v1M21.5,24v1M9.5,15v1M18.5,13v1M12.5,11v1M16.5,14v1M1.5,29v1M27.5,23v1M4.5,27v1M13.5,31v1M30.5,21v1M10.5,11v1M26.5,26v1M21.5,12v1M6.5,30v1M6.5,1v1M5.5,14v1M16.5,17v1M28.5,21v1M2.5,31v1M14.5,31v1M22.5,11v1M18.5,4v1M21.5,15v1M31.5,1v1M10.5,10v1M3.5,16v1M14.5,14v1M10.5,30v1M25.5,12v1M9.5,18v1M28.5,10v1M14.5,24v1M21.5,2v1M14.5,22v1M25.5,7v1M18.5,19v1M3.5,13v1M29.5,21v1M21.5,21v1M18.5,26v1M4.5,8v1M21.5,23v1M28.5,19v1M14.5,11v1M25.5,22v1M31.5,12v1M16.5,27v1M11.5,24v1M25.5,8v1M11.5,26v1M4.5,16v1M1.5,7v1M26.5,0v1M6.5,6v1M4.5,12v1M26.5,6v1M20.5,31v1M28.5,23v1M14.5,22v1M10.5,16v1M25.5,20v1M29.5,14v1M31.5,26v1M30.5,24v1M10.5,20v1M1.5,12v1M30.5,17v1M19.5,10v1M8.5,28v1M8.5,25v1M14.5,2v1M15.5,8v1M12.5,7v1M5.5,24v1M11.5,16v1M23.5,1v1M27.5,25v1M19.5,21v1M1.5,13v1M2.5,28v1M0.5,22v1M21.5,12v1M2.5,2v1M12.5,30v1M20.5,24v1M21.5,2v1M21.5,23v1M12.5,23v1M19.5,4v1M24.5,6v1M6.5,11v1M27.5,28v1M12.5,7v1M25.5,14v1M9.5,27v1M5.5,25v1M11.5,1v1M12.5,0v1M4.5,12v1M8.5,1v1M22.5,9v1M32.5,11v1M9.5,10v1M7.5,9v1M21.5,5v1M4.5,21v1M29.5,10v1M21.5,12v1M14.5,4v1M29.5,10v1M17.5,32v1M21.5,1v1M26.5,26v1M0.5,8v1M25.5,11v1M26.5,19v1M7.5,12v1M19.5,2v1M30.5,9v1M17.5,2v1M30.5,4v1M27.5,4v1M30.5,15v1M2.5,25v1M31.5,30v1M24.5,5v1M16.5,25v1M10.5,17v1M17.5,4v1M18.5,12v1M12.5,10v1M19.5,25v1M3.5,9v1M11.5,28v1M6.5,32v1M30.5,9v1M8.5,20v1M32.5,21v1M6.5,8v1M2.5,29v1M3.5,22v1M12.5,8v1M8.5,1v1M9.5,11v1M15.5,1v1M29.5,5v1M9.5,9v1M7.5,0v1M1.5,20v1M13.5,15v1M5.5,28v1M10.5,27v1M31.5,17v1M14.5,17v1M8.5,1v1M7.5,13v1M13.5,23v1M20.5,13v1M23.5,17v1M21.5,27v1M23.5,4v1M31.5,4v1M32.5,30v1M23.5,17v1M29.5,21v1M16.5,21v1M8.5,23v1M3.5,29v1M12.5,9v1M30.5,3v1M9.5,13v1M0.5,13v1M4.5,3v1M24.5,15v1M21.5,26v1M18.5,26v1M26.5,10v1M11.5,21v1M4.5,19v1M31.5,16v1M0.5,20v1M10.5,15v1M6.5,5v1M0.5,3v1M23.5,31v1M21.5,26v1M16.5,18v1M16.5,1v1M2.5,21v1M26.5,11v1M25.5,16v1M20.5,30v1M13.5,17v1M5.5,23v1M32.5,16v1M1.5,7v1M10.5,28v1M32.5,30v1M20.5,24v1M11.5,32v1M29.5,15v1M6.5,31v1M1.5,31v1M6.5,19v1M1.5,1v1M23.5,4v1M4.5,18v1M32.5,20v1M16.5,5v1M6.5,26v1M29.5,4v1M22.5,12v1M8.5,25v1M3.5,16v1M12.5,7v1"/><path stroke="#1d7518" stroke-width="1" d="M15.5,9v1M24.5,16v1M6.5,26v1M32.5,26v1M7.5,23v1M27.5,11v1M4.5,1v1M12.5,25v1M29.5,7v1M3.5,23v1M21.5,18v1M17.5,11v1M15.5,15v1M14.5,0v1M11.5,20v1M24.5,31v1M25.5,16v1M22.5,17v1M16.5,7v1M14.5,15v1M19.5,16v1M6.5,16v1M7.5,17v1M17.5,8v1M31.5,8v1M29.5,30v1M25.5,6v1M26.5,1v1M14.5,1v1M11.5,17v1M25.5,16v1M4.5,23v1M19.5,26v1M19.5,21v1M12.5,8v1M21.5,21v1M10.5,18v1M22.5,15v1M30.5,25v1M29.5,10v1M22.5,4v1M9.5,4v1M27.5,8v1M22.5,9v1M29.5,5v1M19.5,1v1M22.5,26v1M0.5,23v1M7.5,6v1M16.5,15v1M10.5,12v1M10.5,22v1M21.5,32v1M16.5,19v1M26.5,11v1M24.5,15v1M11.5,29v1M20.5,31v1M28.5,23v1M31.5,11v1M21.5,13v1M5.5,16v1M5.5,12v1M8.5,15v1M26.5,18v1M31.5,7v1M5.5,31v1M26.5,1v1M7.5,26v1M2.5,8v1M14.5,12v1M25.5,26v1M5.5,18v1M2.5,8v1M7.5,16v1M14.5,3v1M32.5,14v1M21.5,13v1M12.5,22v1M29.5,21v1M15.5,4v1M24.5,5v1M12.5,20v1M1.5,27v1M16.5,5v1M10.5,31v1M21.5,23v1M19.5,5v1M2.5,28v1M30.5,32v1M15.5,23v1M27.5,2v1M7.5,5v1M5.5,16v1M5.5,2v1M13.5,4v1M15.5,26v1M1.5,18v1M13.5,0v1M20.5,25v1M4.5,23v1M8.5,15v1M8.5,25v1M14.5,26v1M18.5,27v1M29.5,22v1M4.5,29v1M6.5,5v1M15.5,7v1M24.5,5v1M0.5,15v1M20.5,13v1M26.5,6v1M6.5,30v1M8.5,28v1M22.5,7v1M5.5,16v1M27.5,26v1M22.5,21v1M3.5,7v1M24.5,32v1M5.5,7v1M4.5,14v1M24.5,11v1M30.5,0v1M6.5,21v1M12.5,4v1M19.5,22v1M5.5,9v1M11.5,2v1M18.5,15v1M5.5,3v1M17.5,8v1M9.5,28v1M12.5,29v1M19.5,19v1M8.5,4v1M30.5,1v1M2.5,21v1M31.5,29v1M25.5,15v1M30.5,17v1M15.5,4v1M7.5,11v1M9.5,28v1M6.5,7v1M28.5,21v1M11.5,24v1M5.5,20v1M4.5,26v1M5.5,3v1M18.5,19v1M7.5,30v1M22.5,3v1M28.5,11v1M23.5,11v1M16.5,0v1M30.5,31v1M11.5,12v1M28.5,2v1M6.5,18v1M24.5,5v1M30.5,30v1M13.5,19v1M31.5,31v1M21.5,12v1M8.5,3v1M7.5,31v1M12.5,15v1M24.5,23v1M9.5,24v1M7.5,31v1M28.5,7v1M29.5,31v1M16.5,17v1M3.5,32v1M29.5,4v1M30.5,25v1M13.5,3v1M9.5,13v1M2.5,8v1M14.5,2v1M1.5,21v1M30.5,6v1M17.5,7v1M4.5,19v1M8.5,26v1M5.5,28v1M17.5,10v1M14.5,32v1M1.5,2v1M3.5,0v1M4.5,7v1M17.5,20v1M22.5,23v1M16.5,23v1M3.5,8v1M29.5,28v1M2.5,20v1M12.5,31v1M12.5,22v1M4.5,17v1M5.5,15v1M15.5,24v1M12.5,20v1M4.5,9v1M5.5,12v1M5.5,25v1M8.5,18v1M0.5,10v1M5.5,4v1M19.5,18v1M26.5,11v1M26.5,19v1M30.5,20v1M11.5,5v1M14.5,24v1M26.5,19v1M17.5,5v1M9.5,9v1M24.5,18v1M2.5,11v1M13.5,3v1M9.5,26v1M20.5,9v1M17.5,20v1M8.5,4v1M21.5,20v1M14.5,30v1M22.5,17v1M16.5,13v1M21.5,7v1M24.5,31v1M25.5,2v1M27.5,12v1M10.5,25v1M11.5,27v1M21.5,29v1M26.5,17v1M10.5,16v1M7.5,8v1M19.5,20v1M31.5,30v1M16.5,24v1M32.5,24v1M26.5,26v1M1.5,17v1M16.5,13v1M10.5,3v1M4.5,23v1M13.5,24v1M13.5,23v1M3.5,6v1M9.5,4v1M11.5,15v1M31.5,25v1M32.5,19v1M4.5,0v1M21.5,7v1M5.5,27v1M7.5,15v1M27.5,10v1M10.5,13v1M27.5,3v1M30.5,24v1M32.5,21v1M27.5,6v1M19.5,1v1M13.5,5v1M8.5,9v1M32.5,21v1M20.5,26v1M17.5,15v1M13.5,11v1M13.5,3v1M8.5,7v1M21.5,16v1M13.5,28v1M16.5,11v1M17.5,22v1M2.5,19v1M22.5,28v1M27.5,17v1M17.5,18v1M15.5,25v1M22.5,23v1M30.5,3v1M19.5,32v1M10.5,6v1M15.5,29v1M1.5,6v1"/><path stroke="#247720" stroke-width="1" d="M23.5,20v1M2.5,9v1M5.5,12v1M0.5,1v1M30.5,5v1M2.5,5v1M25.5,20v1M21.5,15v1M16.5,21v1M20.5,1v1M26.5,25v1M23.5,27v1M8.5,1v1M13.5,15v1M2.5,0v1M27.5,25v1M8.5,14v1M5.5,21v1M8.5,29v1M25.5,3v1M2.5,21v1M30.5,22v1M26.5,1v1M10.5,19v1M14.5,31v1M14.5,1v1M1.5,11v1M29.5,22v1M30.5,20v1M9.5,1v1M21.5,28v1M13.5,20v1M12.5,26v1M3.5,12v1M9.5,12v1M25.5,21v1M17.5,6v1M3.5,2v1M27.5,1v1M0.5,28v1M2.5,20v1M6.5,1v1M8.5,20v1M4.5,5v1M4.5,9v1M16.5,23v1M15.5,31v1M27.5,1v1M0.5,28v1M29.5,30v1M9.5,18v1M1.5,29v1M24.5,8v1M9.5,8v1M18.5,27v1M20.5,18v1M22.5,11v1M22.5,19v1M25.5,17v1M2.5,19v1M23.5,2v1M8.5,24v1M29.5,16v1M23.5,9v1M27.5,19v1M9.5,11v1M10.5,29v1M26.5,10v1M28.5,9v1M17.5,16v1M7.5,15v1M27.5,20v1M26.5,2v1M18.5,17v1M28.5,31v1M18.5,21v1M10.5,20v1M21.5,23v1M2.5,12v1M3.5,26v1M4.5,1v1M32.5,8v1M8.5,18v1M6.5,27v1M19.5,16v1M18.5,23v1M29.5,23v1M17.5,24v1M19.5,30v1M18.5,17v1M28.5,1v1M2.5,27v1M19.5,9v1M24.5,21v1M27.5,9v1M13.5,29v1M12.5,15v1M13.5,27v1M17.5,28v1M31.5,2v1M2.5,21v1M30.5,25v1M9.5,3v1M7.5,25v1M13.5,17v1M29.5,3v1M7.5,23v1M16.5,24v1M4.5,15v1M13.5,3v1M23.5,24v1M19.5,2v1M30.5,28v1M6.5,9v1M26.5,22v1M21.5,23v1M16.5,1v1M18.5,8v1M28.5,31v1M3.5,0v1M7.5,16v1M25.5,24v1M28.5,22v1M7.5,20v1M10.5,27v1M25.5,27v1M18.5,22v1M7.5,21v1M19.5,32v1M21.5,23v1M28.5,5v1M12.5,8v1M26.5,14v1M5.5,22v1M13.5,32v1M17.5,31v1M29.5,27v1M18.5,5v1M7.5,25v1M29.5,31v1M15.5,11v1M12.5,9v1M2.5,22v1M26.5,25v1M9.5,14v1M2.5,23v1M28.5,29v1M10.5,30v1M21.5,26v1M9.5,25v1M4.5,24v1M14.5,16v1M10.5,21v1M19.5,31v1M19.5,4v1M21.5,21v1M30.5,27v1M23.5,18v1M26.5,18v1M11.5,16v1M8.5,24v1M17.5,1v1M19.5,9v1M20.5,9v1M29.5,16v1M25.5,20v1M10.5,0v1M8.5,15v1M4.5,17v1M5.5,32v1M31.5,1v1M8.5,3v1M26.5,8v1M8.5,23v1M25.5,9v1M10.5,29v1M26.5,27v1M3.5,0v1M23.5,26v1M3.5,14v1M18.5,0v1M6.5,26v1M20.5,18v1M3.5,2v1M7.5,24v1M4.5,6v1M25.5,18v1M30.5,28v1M15.5,2v1M27.5,25v1M11.5,8v1M31.5,22v1M26.5,2v1M11.5,9v1M10.5,18v1M13.5,9v1M16.5,9v1M31.5,31v1M6.5,11v1M16.5,16v1M3.5,15v1M7.5,7v1M18.5,15v1M10.5,30v1M6.5,16v1M4.5,12v1M16.5,22v1M26.5,11v1M27.5,7v1M29.5,7v1M2.5,7v1M32.5,19v1M6.5,22v1M24.5,18v1M28.5,17v1M10.5,7v1M16.5,25v1M2.5,18v1M7.5,18v1M12.5,14v1M10.5,26v1M10.5,23v1M7.5,20v1M13.5,15v1M10.5,1v1M16.5,30v1M0.5,2v1M19.5,15v1M11.5,16v1M1.5,3v1M9.5,8v1M12.5,11v1M14.5,31v1M31.5,14v1M1.5,20v1M24.5,10v1M17.5,29v1M11.5,27v1M9.5,6v1M8.5,6v1M22.5,10v1M24.5,16v1M30.5,7v1M11.5,6v1M6.5,12v1M7.5,30v1M27.5,6v1M29.5,12v1M28.5,4v1M28.5,21v1M8.5,9v1M1.5,28v1M28.5,0v1M20.5,2v1M23.5,20v1M16.5,29v1M17.5,23v1M15.5,13v1M18.5,6v1M14.5,10v1M2.5,3v1M30.5,7v1M4.5,6v1M14.5,8v1M23.5,14v1M27.5,28v1M4.5,16v1M15.5,23v1M6.5,9v1M7.5,11v1M29.5,12v1M6.5,19v1"/><path stroke="#5cb857" stroke-width="1" d="M17.5,8v1M8.5,11v1M10.5,18v1M14.5,10v1M23.5,31v1M27.5,27v1M4.5,14v1M5.5,12v1M15.5,2v1M1.5,10v1M22.5,21v1M32.5,8v1M16.5,28v1M21.5,27v1M29.5,22v1M31.5,16v1M16.5,21v1M12.5,32v1M5.5,12v1M23.5,29v1M11.5,24v1M8.5,31v1M24.5,11v1M15.5,23v1M19.5,10v1M7.5,22v1M14.5,16v1M16.5,6v1M7.5,32v1M4.5,16v1M29.5,4v1M29.5,30v1M31.5,5v1M19.5,16v1M26.5,17v1M24.5,2v1M9.5,30v1M13.5,32v1M30.5,4v1M12.5,17v1M7.5,26v1M22.5,7v1M4.5,11v1M12.5,3v1M4.5,21v1M8.5,27v1M17.5,5v1M20.5,18v1M20.5,31v1M2.5,21v1M7.5,25v1M24.5,28v1M1.5,12v1M31.5,16v1M7.5,28v1M29.5,4v1M14.5,5v1M15.5,30v1M28.5,12v1M10.5,19v1M31.5,3v1M3.5,8v1M23.5,1v1M3.5,3v1M2.5,5v1M31.5,16v1M3.5,13v1M15.5,7v1M27.5,10v1M17.5,14v1M2.5,5v1M21.5,0v1M16.5,31v1M13.5,9v1M27.5,19v1M14.5,12v1M25.5,6v1M14.5,29v1M4.5,20v1M6.5,28v1M30.5,1v1M7.5,9v1M24.5,10v1M14.5,5v1M25.5,31v1M14.5,31v1M6.5,29v1M24.5,13v1M23.5,6v1M31.5,25v1M17.5,23v1M30.5,17v1M9.5,17v1M16.5,5v1M9.5,28v1M3.5,29v1M10.5,1v1M11.5,31v1M4.5,17v1M3.5,9v1M10.5,13v1M20.5,28v1M3.5,2v1M15.5,25v1M1.5,13v1M2.5,31v1M12.5,7v1M14.5,2v1M11.5,26v1M9.5,19v1M1.5,2v1M9.5,6v1M23.5,13v1M7.5,9v1M6.5,4v1M27.5,26v1M21.5,4v1M23.5,28v1M11.5,4v1M29.5,7v1M18.5,23v1M10.5,10v1M31.5,14v1M4.5,6v1M28.5,7v1M8.5,11v1M17.5,22v1M18.5,4v1M20.5,8v1M19.5,28v1M24.5,32v1M12.5,25v1M16.5,11v1M10.5,11v1M21.5,26v1M25.5,16v1M22.5,23v1M1.5,6v1M23.5,13v1M12.5,28v1M28.5,17v1M19.5,2v1M3.5,31v1M9.5,6v1M22.5,3v1M11.5,7v1M31.5,18v1M28.5,24v1M21.5,24v1M13.5,6v1M11.5,20v1M9.5,21v1M25.5,31v1M26.5,26v1M2.5,3v1M23.5,18v1M30.5,9v1M12.5,13v1M23.5,30v1M13.5,16v1M22.5,6v1M32.5,9v1M24.5,16v1M25.5,7v1M18.5,21v1M18.5,28v1M3.5,4v1M5.5,31v1M15.5,21v1M29.5,11v1M22.5,32v1M9.5,17v1M26.5,18v1M21.5,16v1M11.5,15v1M0.5,23v1M7.5,24v1M9.5,12v1M21.5,24v1M24.5,5v1M12.5,25v1M4.5,15v1M8.5,21v1M20.5,11v1M16.5,18v1M17.5,8v1M16.5,10v1M30.5,7v1M14.5,5v1M9.5,4v1M24.5,28v1M20.5,20v1M21.5,19v1M9.5,24v1M7.5,10v1M17.5,18v1M12.5,29v1M19.5,27v1M11.5,32v1M29.5,15v1M20.5,19v1M2.5,7v1M3.5,8v1M30.5,22v1M7.5,11v1M31.5,3v1M13.5,7v1M26.5,15v1M12.5,3v1M6.5,18v1M17.5,31v1M17.5,31v1M28.5,8v1M25.5,7v1M19.5,29v1M22.5,9v1M8.5,16v1M1.5,19v1M16.5,5v1M28.5,1v1M4.5,19v1M6.5,8v1M21.5,10v1M17.5,15v1M8.5,9v1M18.5,5v1M14.5,26v1M20.5,5v1M26.5,27v1M24.5,9v1M29.5,1v1M31.5,23v1M20.5,22v1M26.5,21v1M15.5,7v1M23.5,4v1M3.5,18v1M0.5,10v1M31.5,31v1M31.5,1v1M18.5,31v1M8.5,30v1M11.5,5v1M3.5,18v1M31.5,13v1M4.5,15v1M16.5,31v1M25.5,22v1M29.5,24v1M11.5,10v1M11.5,31v1M13.5,14v1M13.5,19v1M7.5,18v1M27.5,12v1M12.5,3v1M4.5,4v1M28.5,15v1M31.5,8v1"/><path stroke="#199137" stroke-width="1" d="M22.5,3v1M10.5,28v1M10.5,8v1M13.5,8v1M28.5,12v1M1.5,11v1M15.5,26v1M10.5,23v1M11.5,1v1M3.5,5v1M21.5,25v1M17.5,31v1M31.5,12v1M30.5,12v1M5.5,0v1M20.5,32v1M20.5,10v1M21.5,19v1M22.5,23v1M26.5,22v1M4.5,24v1M26.5,10v1M14.5,25v1M2.5,11v1M29.5,27v1M25.5,6v1M6.5,6v1M19.5,8v1M15.5,16v1M19.5,8v1M7.5,31v1M11.5,11v1M11.5,21v1M6.5,9v1M31.5,31v1M20.5,31v1M30.5,6v1M18.5,26v1M6.5,30v1M24.5,24v1M12.5,3v1M24.5,10v1M22.5,9v1M7.5,1v1M25.5,15v1M31.5,28v1M16.5,29v1M0.5,7v1M20.5,31v1M3.5,30v1M22.5,25v1M21.5,32v1M29.5,31v1M23.5,3v1M9.5,22v1M13.5,27v1M7.5,22v1M19.5,21v1M3.5,6v1M28.5,27v1M0.5,26v1M9.5,7v1M6.5,9v1M20.5,19v1M27.5,27v1M21.5,20v1M26.5,29v1M6.5,29v1M19.5,23v1M29.5,6v1M24.5,26v1M18.5,15v1M11.5,4v1M21.5,7v1M16.5,8v1M0.5,27v1M12.5,8v1M27.5,5v1M7.5,24v1M18.5,24v1M26.5,21v1M13.5,9v1M9.5,12v1M26.5,4v1M7.5,11v1M0.5,6v1M29.5,8v1M13.5,20v1M9.5,16v1M31.5,11v1M20.5,17v1M20.5,26v1M16.5,2v1M6.5,18v1M7.5,22v1M30.5,21v1M9.5,10v1M19.5,10v1M19.5,4v1M31.5,18v1M17.5,2v1M2.5,21v1M6.5,27v1M6.5,25v1M3.5,17v1M20.5,28v1M8.5,12v1M20.5,13v1M20.5,5v1M8.5,26v1M24.5,17v1M14.5,24v1M21.5,32v1M18.5,6v1M25.5,3v1M24.5,9v1M2.5,8v1M27.5,13v1M15.5,11v1M11.5,31v1M11.5,11v1M7.5,31v1M6.5,27v1M10.5,31v1M29.5,17v1M4.5,17v1M25.5,17v1M26.5,3v1M6.5,1v1M25.5,27v1M24.5,4v1M4.5,14v1M2.5,11v1M28.5,8v1M4.5,25v1M10.5,7v1M2.5,20v1M32.5,32v1M17.5,26v1M20.5,16v1M8.5,2v1M20.5,12v1M2.5,11v1M31.5,32v1M18.5,20v1M30.5,25v1M13.5,3v1M17.5,8v1M7.5,14v1M12.5,17v1M17.5,24v1M15.5,30v1M2.5,31v1M3.5,7v1M10.5,17v1M27.5,3v1M9.5,10v1M15.5,9v1M6.5,4v1M13.5,22v1M21.5,29v1M27.5,12v1M22.5,27v1M1.5,0v1M0.5,27v1M19.5,29v1M10.5,13v1M23.5,30v1M4.5,22v1M16.5,22v1M9.5,29v1M3.5,23v1M27.5,2v1M11.5,4v1M31.5,2v1M20.5,12v1M15.5,28v1M9.5,30v1M15.5,14v1M31.5,21v1M27.5,29v1M11.5,12v1M28.5,13v1M27.5,1v1M10.5,6v1M5.5,4v1M25.5,8v1M26.5,18v1M13.5,18v1M21.5,22v1M15.5,8v1M21.5,19v1M3.5,14v1M16.5,29v1M11.5,17v1M1.5,6v1M26.5,32v1M19.5,4v1M19.5,6v1M13.5,20v1M25.5,25v1M16.5,19v1M18.5,2v1M28.5,25v1M8.5,0v1M27.5,20v1M25.5,24v1M2.5,12v1M30.5,4v1M18.5,13v1M5.5,3v1M21.5,26v1M32.5,12v1M4.5,28v1M9.5,13v1M18.5,25v1M19.5,25v1M6.5,21v1M14.5,6v1M5.5,10v1M13.5,24v1M6.5,4v1M18.5,22v1M31.5,8v1M23.5,1v1M12.5,15v1M25.5,13v1M23.5,8v1M21.5,15v1M29.5,24v1M20.5,11v1M5.5,20v1M28.5,18v1M2.5,22v1M11.5,30v1M31.5,5v1M25.5,13v1M24.5,12v1M7.5,1v1M26.5,6v1M25.5,25v1M2.5,12v1M18.5,16v1M3.5,13v1M3.5,18v1M19.5,30v1M11.5,16v1M11.5,29v1M10.5,9v1M11.5,3v1M0.5,5v1M20.5,16v1M21.5,6v1M5.5,10v1M24.5,28v1M31.5,11v1M5.5,15v1M26.5,24v1M4.5,29v1M22.5,17v1M32.5,31v1M18.5,16v1M18.5,10v1M25.5,2v1M9.5,0v1M5.5,21v1M5.5,9v1M10.5,26v1M21.5,5v1M18.5,29v1M16.5,28v1M22.5,27v1"/></g></svg>