<svg xmlns="http://www.w3.org/2000/svg" width="64" height="64" viewBox="0 0 64 64">
    <rect width="64" height="64" fill="rgb(130,130,130)"/>
    <g>
        <!-- Horizontal lines -->
        <path stroke="rgb(30,30,30)" stroke-width="0.5"  
            d=" M0  0 L64  0
                M0  8 L64  8 
                M0 16 L64 16
                M0 24 L64 24 
                M0 32 L64 32 
                M0 40 L64 40 
                M0 48 L64 48 
                M0 56 L64 56 
                M0 64 L64 64" 
        />
        <!-- Vertical lines -->
        <path stroke="rgb(30,30,30)" stroke-width="0.5"  
            d=" M0 0  L 0 64 
                M8 0  L 8 64 
                M16 0 L16 64
                M24 0 L24 64 
                M32 0 L32 64 
                M40 0 L40 64 
                M48 0 L48 64 
                M56 0 L56 64
                M64 0 L64 64"
        />
    </g>
</svg>